<mxfile host="Electron" modified="2024-02-09T04:24:14.997Z" agent="Mozilla/5.0 (Windows NT 10.0; Win64; x64) AppleWebKit/537.36 (KHTML, like Gecko) draw.io/23.0.2 Chrome/120.0.6099.109 Electron/28.1.0 Safari/537.36" etag="B3aCq7S0nGeLQ4x3eF8q" version="23.0.2" type="device">
  <diagram name="Page-1" id="U0sN0tNoqHn77_cme9i0">
    <mxGraphModel dx="1036" dy="606" grid="1" gridSize="10" guides="1" tooltips="1" connect="1" arrows="1" fold="1" page="1" pageScale="1" pageWidth="827" pageHeight="1169" math="0" shadow="0">
      <root>
        <mxCell id="0" />
        <mxCell id="1" parent="0" />
        <mxCell id="XygXl6Enzu-woB4NirKY-16" value="" style="endArrow=classic;html=1;rounded=0;entryX=0;entryY=0.5;entryDx=0;entryDy=0;exitX=0.5;exitY=0.5;exitDx=0;exitDy=0;exitPerimeter=0;" parent="1" source="XygXl6Enzu-woB4NirKY-6" target="XygXl6Enzu-woB4NirKY-4" edge="1">
          <mxGeometry width="50" height="50" relative="1" as="geometry">
            <mxPoint x="370" y="481" as="sourcePoint" />
            <mxPoint x="420" y="431" as="targetPoint" />
          </mxGeometry>
        </mxCell>
        <mxCell id="XygXl6Enzu-woB4NirKY-2" value="" style="swimlane;startSize=0;" parent="1" vertex="1">
          <mxGeometry x="130" y="75" width="550" height="865" as="geometry" />
        </mxCell>
        <mxCell id="XygXl6Enzu-woB4NirKY-4" value="&lt;font style=&quot;font-size: 14px;&quot;&gt;Register&lt;/font&gt;" style="ellipse;whiteSpace=wrap;html=1;fontStyle=1;fontSize=13;" parent="XygXl6Enzu-woB4NirKY-2" vertex="1">
          <mxGeometry x="81" y="475" width="120" height="50" as="geometry" />
        </mxCell>
        <mxCell id="XygXl6Enzu-woB4NirKY-5" value="&lt;font style=&quot;font-size: 14px;&quot;&gt;Login&lt;/font&gt;" style="ellipse;whiteSpace=wrap;html=1;fontStyle=1;fontSize=13;" parent="XygXl6Enzu-woB4NirKY-2" vertex="1">
          <mxGeometry x="220" y="391" width="140" height="65" as="geometry" />
        </mxCell>
        <mxCell id="XygXl6Enzu-woB4NirKY-25" value="&lt;font style=&quot;font-size: 14px;&quot;&gt;Review Product&lt;/font&gt;" style="ellipse;whiteSpace=wrap;html=1;fontStyle=1;fontSize=13;" parent="XygXl6Enzu-woB4NirKY-2" vertex="1">
          <mxGeometry x="90" y="615" width="120" height="50" as="geometry" />
        </mxCell>
        <mxCell id="XygXl6Enzu-woB4NirKY-26" value="&lt;font style=&quot;font-size: 14px;&quot;&gt;Add To Cart&lt;/font&gt;" style="ellipse;whiteSpace=wrap;html=1;fontStyle=1;fontSize=13;" parent="XygXl6Enzu-woB4NirKY-2" vertex="1">
          <mxGeometry x="86" y="745" width="120" height="50" as="geometry" />
        </mxCell>
        <mxCell id="XygXl6Enzu-woB4NirKY-27" value="&lt;span style=&quot;font-size: 14px;&quot;&gt;Add To Favourite&lt;/span&gt;" style="ellipse;whiteSpace=wrap;html=1;fontStyle=1;fontSize=13;" parent="XygXl6Enzu-woB4NirKY-2" vertex="1">
          <mxGeometry x="81" y="675" width="130" height="60" as="geometry" />
        </mxCell>
        <mxCell id="XygXl6Enzu-woB4NirKY-28" value="&lt;span style=&quot;font-size: 14px;&quot;&gt;Check Out&lt;/span&gt;" style="ellipse;whiteSpace=wrap;html=1;fontStyle=1;fontSize=13;" parent="XygXl6Enzu-woB4NirKY-2" vertex="1">
          <mxGeometry x="86" y="806" width="120" height="50" as="geometry" />
        </mxCell>
        <mxCell id="XygXl6Enzu-woB4NirKY-30" value="&lt;span style=&quot;font-size: 14px;&quot;&gt;Review Delivery Status&lt;/span&gt;" style="ellipse;whiteSpace=wrap;html=1;fontStyle=1;fontSize=13;" parent="XygXl6Enzu-woB4NirKY-2" vertex="1">
          <mxGeometry x="226" y="475" width="134" height="70" as="geometry" />
        </mxCell>
        <mxCell id="XygXl6Enzu-woB4NirKY-29" value="&lt;span style=&quot;font-size: 14px;&quot;&gt;Payment Gateway&lt;/span&gt;" style="ellipse;whiteSpace=wrap;html=1;fontStyle=1;fontSize=13;" parent="XygXl6Enzu-woB4NirKY-2" vertex="1">
          <mxGeometry x="235" y="735" width="120" height="50" as="geometry" />
        </mxCell>
        <mxCell id="XygXl6Enzu-woB4NirKY-38" value="" style="endArrow=open;endSize=12;dashed=1;html=1;rounded=0;exitX=1;exitY=0.5;exitDx=0;exitDy=0;entryX=0.5;entryY=1;entryDx=0;entryDy=0;" parent="XygXl6Enzu-woB4NirKY-2" target="XygXl6Enzu-woB4NirKY-29" edge="1">
          <mxGeometry width="160" relative="1" as="geometry">
            <mxPoint x="206" y="830" as="sourcePoint" />
            <mxPoint x="380" y="526" as="targetPoint" />
          </mxGeometry>
        </mxCell>
        <mxCell id="XygXl6Enzu-woB4NirKY-41" value="&lt;span style=&quot;font-size: 14px;&quot;&gt;Add Product&lt;/span&gt;" style="ellipse;whiteSpace=wrap;html=1;fontStyle=1;fontSize=13;" parent="XygXl6Enzu-woB4NirKY-2" vertex="1">
          <mxGeometry x="50" y="105" width="130" height="55" as="geometry" />
        </mxCell>
        <mxCell id="XygXl6Enzu-woB4NirKY-20" value="&lt;font style=&quot;font-size: 14px;&quot;&gt;Search and Filter Product&lt;/font&gt;" style="ellipse;whiteSpace=wrap;html=1;fontStyle=1;fontSize=13;" parent="XygXl6Enzu-woB4NirKY-2" vertex="1">
          <mxGeometry x="76" y="535" width="144" height="70" as="geometry" />
        </mxCell>
        <mxCell id="XygXl6Enzu-woB4NirKY-43" value="&lt;span style=&quot;font-size: 14px;&quot;&gt;Manage Products&lt;/span&gt;" style="ellipse;whiteSpace=wrap;html=1;fontStyle=1;fontSize=13;" parent="XygXl6Enzu-woB4NirKY-2" vertex="1">
          <mxGeometry x="54" y="175" width="130" height="60" as="geometry" />
        </mxCell>
        <mxCell id="XygXl6Enzu-woB4NirKY-44" value="&lt;span style=&quot;font-size: 14px;&quot;&gt;Remove Product&lt;/span&gt;" style="ellipse;whiteSpace=wrap;html=1;fontStyle=1;fontSize=13;" parent="XygXl6Enzu-woB4NirKY-2" vertex="1">
          <mxGeometry x="54" y="245" width="130" height="60" as="geometry" />
        </mxCell>
        <mxCell id="XygXl6Enzu-woB4NirKY-48" value="&lt;span style=&quot;font-size: 14px;&quot;&gt;Product Validation&lt;/span&gt;" style="ellipse;whiteSpace=wrap;html=1;fontStyle=1;fontSize=13;" parent="XygXl6Enzu-woB4NirKY-2" vertex="1">
          <mxGeometry x="220" y="135" width="130" height="60" as="geometry" />
        </mxCell>
        <mxCell id="XygXl6Enzu-woB4NirKY-81" value="&lt;span style=&quot;font-size: 14px;&quot;&gt;Product Listing&lt;/span&gt;" style="ellipse;whiteSpace=wrap;html=1;fontStyle=1;fontSize=13;" parent="XygXl6Enzu-woB4NirKY-2" vertex="1">
          <mxGeometry x="225" y="245" width="130" height="60" as="geometry" />
        </mxCell>
        <mxCell id="XygXl6Enzu-woB4NirKY-82" value="&lt;span style=&quot;font-size: 14px;&quot;&gt;Manage Profile&lt;/span&gt;" style="ellipse;whiteSpace=wrap;html=1;fontStyle=1;fontSize=13;" parent="XygXl6Enzu-woB4NirKY-2" vertex="1">
          <mxGeometry x="230" y="315" width="130" height="60" as="geometry" />
        </mxCell>
        <mxCell id="XygXl6Enzu-woB4NirKY-87" value="" style="endArrow=block;dashed=1;endFill=0;endSize=12;html=1;rounded=0;exitX=1;exitY=0.5;exitDx=0;exitDy=0;entryX=0.5;entryY=0;entryDx=0;entryDy=0;" parent="XygXl6Enzu-woB4NirKY-2" source="XygXl6Enzu-woB4NirKY-41" target="XygXl6Enzu-woB4NirKY-48" edge="1">
          <mxGeometry width="160" relative="1" as="geometry">
            <mxPoint x="220" y="375" as="sourcePoint" />
            <mxPoint x="380" y="375" as="targetPoint" />
          </mxGeometry>
        </mxCell>
        <mxCell id="XygXl6Enzu-woB4NirKY-88" value="&lt;font style=&quot;font-size: 13px;&quot;&gt;&lt;b&gt;&amp;lt;&amp;lt;&amp;nbsp; Dependent &amp;gt;&amp;gt;&lt;/b&gt;&lt;/font&gt;" style="endArrow=open;endSize=12;dashed=1;html=1;rounded=0;exitX=0.5;exitY=0;exitDx=0;exitDy=0;entryX=0.5;entryY=1;entryDx=0;entryDy=0;" parent="XygXl6Enzu-woB4NirKY-2" source="XygXl6Enzu-woB4NirKY-29" target="XygXl6Enzu-woB4NirKY-30" edge="1">
          <mxGeometry width="160" relative="1" as="geometry">
            <mxPoint x="220" y="585" as="sourcePoint" />
            <mxPoint x="380" y="585" as="targetPoint" />
          </mxGeometry>
        </mxCell>
        <mxCell id="XygXl6Enzu-woB4NirKY-90" value="&lt;font style=&quot;font-size: 13px;&quot;&gt;&lt;b&gt;&amp;lt;&amp;lt; Dependent &amp;gt;&amp;gt;&lt;/b&gt;&lt;/font&gt;" style="endArrow=open;endSize=12;dashed=1;html=1;rounded=0;exitX=0.5;exitY=1;exitDx=0;exitDy=0;" parent="XygXl6Enzu-woB4NirKY-2" source="XygXl6Enzu-woB4NirKY-48" target="XygXl6Enzu-woB4NirKY-81" edge="1">
          <mxGeometry width="160" relative="1" as="geometry">
            <mxPoint x="220" y="265" as="sourcePoint" />
            <mxPoint x="380" y="265" as="targetPoint" />
          </mxGeometry>
        </mxCell>
        <mxCell id="XygXl6Enzu-woB4NirKY-93" value="&lt;span style=&quot;font-size: 14px;&quot;&gt;Product Review&lt;/span&gt;" style="ellipse;whiteSpace=wrap;html=1;fontStyle=1;fontSize=13;" parent="XygXl6Enzu-woB4NirKY-2" vertex="1">
          <mxGeometry x="340" y="76" width="130" height="60" as="geometry" />
        </mxCell>
        <mxCell id="XygXl6Enzu-woB4NirKY-95" value="" style="endArrow=block;dashed=1;endFill=0;endSize=12;html=1;rounded=0;exitX=0;exitY=0.5;exitDx=0;exitDy=0;entryX=0.5;entryY=0;entryDx=0;entryDy=0;" parent="XygXl6Enzu-woB4NirKY-2" target="XygXl6Enzu-woB4NirKY-48" edge="1">
          <mxGeometry width="160" relative="1" as="geometry">
            <mxPoint x="340" y="105" as="sourcePoint" />
            <mxPoint x="370" y="385" as="targetPoint" />
          </mxGeometry>
        </mxCell>
        <mxCell id="XygXl6Enzu-woB4NirKY-96" value="&lt;span style=&quot;font-size: 14px;&quot;&gt;Manage Products&lt;/span&gt;" style="ellipse;whiteSpace=wrap;html=1;fontStyle=1;fontSize=13;" parent="XygXl6Enzu-woB4NirKY-2" vertex="1">
          <mxGeometry x="370" y="505" width="130" height="60" as="geometry" />
        </mxCell>
        <mxCell id="XygXl6Enzu-woB4NirKY-97" value="&lt;span style=&quot;font-size: 14px;&quot;&gt;Manage User&#39;s&lt;/span&gt;" style="ellipse;whiteSpace=wrap;html=1;fontStyle=1;fontSize=13;" parent="XygXl6Enzu-woB4NirKY-2" vertex="1">
          <mxGeometry x="370" y="575" width="130" height="60" as="geometry" />
        </mxCell>
        <mxCell id="XygXl6Enzu-woB4NirKY-98" value="&lt;span style=&quot;font-size: 14px;&quot;&gt;Create Tester&#39;s&lt;/span&gt;" style="ellipse;whiteSpace=wrap;html=1;fontStyle=1;fontSize=13;" parent="XygXl6Enzu-woB4NirKY-2" vertex="1">
          <mxGeometry x="370" y="645" width="130" height="60" as="geometry" />
        </mxCell>
        <mxCell id="XygXl6Enzu-woB4NirKY-99" value="&lt;span style=&quot;font-size: 14px;&quot;&gt;Manage Tester&#39;s&lt;/span&gt;" style="ellipse;whiteSpace=wrap;html=1;fontStyle=1;fontSize=13;" parent="XygXl6Enzu-woB4NirKY-2" vertex="1">
          <mxGeometry x="370" y="715" width="130" height="60" as="geometry" />
        </mxCell>
        <mxCell id="XygXl6Enzu-woB4NirKY-126" value="&lt;span style=&quot;font-size: 14px;&quot;&gt;Manage Craftman&#39;s&lt;/span&gt;" style="ellipse;whiteSpace=wrap;html=1;fontStyle=1;fontSize=13;" parent="XygXl6Enzu-woB4NirKY-2" vertex="1">
          <mxGeometry x="370" y="786" width="130" height="60" as="geometry" />
        </mxCell>
        <mxCell id="XygXl6Enzu-woB4NirKY-3" value="Z-Store&lt;br style=&quot;font-size: 21px;&quot;&gt;(Second Product Selling E-Store)" style="text;html=1;align=center;verticalAlign=middle;resizable=0;points=[];autosize=1;strokeColor=none;fillColor=none;fontStyle=1;fontSize=21;" parent="XygXl6Enzu-woB4NirKY-2" vertex="1">
          <mxGeometry x="110" y="5" width="350" height="60" as="geometry" />
        </mxCell>
        <mxCell id="XygXl6Enzu-woB4NirKY-6" value="&lt;font size=&quot;1&quot; style=&quot;&quot;&gt;&lt;b style=&quot;font-size: 16px;&quot;&gt;User&lt;/b&gt;&lt;/font&gt;" style="shape=umlActor;verticalLabelPosition=bottom;verticalAlign=top;html=1;outlineConnect=0;" parent="1" vertex="1">
          <mxGeometry x="50" y="451" width="30" height="60" as="geometry" />
        </mxCell>
        <mxCell id="XygXl6Enzu-woB4NirKY-10" value="&lt;font style=&quot;font-size: 16px;&quot;&gt;&lt;b&gt;Admin&lt;/b&gt;&lt;/font&gt;" style="shape=umlActor;verticalLabelPosition=bottom;verticalAlign=top;html=1;outlineConnect=0;" parent="1" vertex="1">
          <mxGeometry x="750" y="640" width="30" height="60" as="geometry" />
        </mxCell>
        <mxCell id="XygXl6Enzu-woB4NirKY-13" value="&lt;font style=&quot;font-size: 16px;&quot;&gt;&lt;b&gt;Tester&lt;/b&gt;&lt;/font&gt;" style="shape=umlActor;verticalLabelPosition=bottom;verticalAlign=top;html=1;outlineConnect=0;align=left;" parent="1" vertex="1">
          <mxGeometry x="750" y="150" width="30" height="60" as="geometry" />
        </mxCell>
        <mxCell id="XygXl6Enzu-woB4NirKY-17" value="" style="endArrow=classic;html=1;rounded=0;entryX=0;entryY=0.5;entryDx=0;entryDy=0;exitX=0.5;exitY=0.5;exitDx=0;exitDy=0;exitPerimeter=0;" parent="1" source="XygXl6Enzu-woB4NirKY-6" target="XygXl6Enzu-woB4NirKY-5" edge="1">
          <mxGeometry width="50" height="50" relative="1" as="geometry">
            <mxPoint x="370" y="481" as="sourcePoint" />
            <mxPoint x="420" y="431" as="targetPoint" />
          </mxGeometry>
        </mxCell>
        <mxCell id="XygXl6Enzu-woB4NirKY-18" value="" style="endArrow=classic;html=1;rounded=0;exitX=0;exitY=0.3333333333333333;exitDx=0;exitDy=0;exitPerimeter=0;entryX=1;entryY=0.5;entryDx=0;entryDy=0;" parent="1" target="XygXl6Enzu-woB4NirKY-5" edge="1">
          <mxGeometry width="50" height="50" relative="1" as="geometry">
            <mxPoint x="759" y="660" as="sourcePoint" />
            <mxPoint x="420" y="380" as="targetPoint" />
          </mxGeometry>
        </mxCell>
        <mxCell id="XygXl6Enzu-woB4NirKY-19" value="" style="endArrow=classic;html=1;rounded=0;exitX=0;exitY=0.3333333333333333;exitDx=0;exitDy=0;exitPerimeter=0;entryX=1;entryY=0.5;entryDx=0;entryDy=0;" parent="1" target="XygXl6Enzu-woB4NirKY-5" edge="1">
          <mxGeometry width="50" height="50" relative="1" as="geometry">
            <mxPoint x="759" y="180" as="sourcePoint" />
            <mxPoint x="420" y="380" as="targetPoint" />
          </mxGeometry>
        </mxCell>
        <mxCell id="XygXl6Enzu-woB4NirKY-32" value="" style="endArrow=classic;html=1;rounded=0;exitX=0.5;exitY=0.5;exitDx=0;exitDy=0;exitPerimeter=0;entryX=0;entryY=0;entryDx=0;entryDy=0;" parent="1" source="XygXl6Enzu-woB4NirKY-6" target="XygXl6Enzu-woB4NirKY-30" edge="1">
          <mxGeometry width="50" height="50" relative="1" as="geometry">
            <mxPoint x="370" y="541" as="sourcePoint" />
            <mxPoint x="420" y="491" as="targetPoint" />
          </mxGeometry>
        </mxCell>
        <mxCell id="XygXl6Enzu-woB4NirKY-33" value="" style="endArrow=classic;html=1;rounded=0;exitX=1;exitY=1;exitDx=0;exitDy=0;exitPerimeter=0;entryX=0;entryY=0.5;entryDx=0;entryDy=0;" parent="1" source="XygXl6Enzu-woB4NirKY-6" target="XygXl6Enzu-woB4NirKY-20" edge="1">
          <mxGeometry width="50" height="50" relative="1" as="geometry">
            <mxPoint x="370" y="541" as="sourcePoint" />
            <mxPoint x="420" y="491" as="targetPoint" />
          </mxGeometry>
        </mxCell>
        <mxCell id="XygXl6Enzu-woB4NirKY-34" value="" style="endArrow=classic;html=1;rounded=0;exitX=1;exitY=1;exitDx=0;exitDy=0;exitPerimeter=0;entryX=0;entryY=0.5;entryDx=0;entryDy=0;" parent="1" source="XygXl6Enzu-woB4NirKY-6" target="XygXl6Enzu-woB4NirKY-25" edge="1">
          <mxGeometry width="50" height="50" relative="1" as="geometry">
            <mxPoint x="370" y="541" as="sourcePoint" />
            <mxPoint x="420" y="491" as="targetPoint" />
          </mxGeometry>
        </mxCell>
        <mxCell id="XygXl6Enzu-woB4NirKY-35" value="" style="endArrow=classic;html=1;rounded=0;entryX=0;entryY=0.5;entryDx=0;entryDy=0;exitX=1;exitY=1;exitDx=0;exitDy=0;exitPerimeter=0;" parent="1" source="XygXl6Enzu-woB4NirKY-6" target="XygXl6Enzu-woB4NirKY-27" edge="1">
          <mxGeometry width="50" height="50" relative="1" as="geometry">
            <mxPoint x="70" y="491" as="sourcePoint" />
            <mxPoint x="420" y="491" as="targetPoint" />
          </mxGeometry>
        </mxCell>
        <mxCell id="XygXl6Enzu-woB4NirKY-36" value="" style="endArrow=classic;html=1;rounded=0;exitX=1;exitY=1;exitDx=0;exitDy=0;exitPerimeter=0;entryX=0;entryY=0.5;entryDx=0;entryDy=0;" parent="1" source="XygXl6Enzu-woB4NirKY-6" target="XygXl6Enzu-woB4NirKY-26" edge="1">
          <mxGeometry width="50" height="50" relative="1" as="geometry">
            <mxPoint x="370" y="631" as="sourcePoint" />
            <mxPoint x="420" y="581" as="targetPoint" />
          </mxGeometry>
        </mxCell>
        <mxCell id="XygXl6Enzu-woB4NirKY-37" value="" style="endArrow=classic;html=1;rounded=0;exitX=1;exitY=1;exitDx=0;exitDy=0;exitPerimeter=0;entryX=0;entryY=0.5;entryDx=0;entryDy=0;" parent="1" source="XygXl6Enzu-woB4NirKY-6" edge="1">
          <mxGeometry width="50" height="50" relative="1" as="geometry">
            <mxPoint x="370" y="631" as="sourcePoint" />
            <mxPoint x="216" y="905" as="targetPoint" />
          </mxGeometry>
        </mxCell>
        <mxCell id="XygXl6Enzu-woB4NirKY-40" value="&lt;font style=&quot;font-size: 16px;&quot;&gt;&lt;b&gt;Craftman&lt;/b&gt;&lt;/font&gt;" style="shape=umlActor;verticalLabelPosition=bottom;verticalAlign=top;html=1;" parent="1" vertex="1">
          <mxGeometry x="60" y="341" width="30" height="60" as="geometry" />
        </mxCell>
        <mxCell id="XygXl6Enzu-woB4NirKY-83" value="" style="endArrow=classic;html=1;rounded=0;exitX=0.5;exitY=0.5;exitDx=0;exitDy=0;exitPerimeter=0;entryX=0;entryY=0.5;entryDx=0;entryDy=0;" parent="1" source="XygXl6Enzu-woB4NirKY-40" target="XygXl6Enzu-woB4NirKY-82" edge="1">
          <mxGeometry width="50" height="50" relative="1" as="geometry">
            <mxPoint x="370" y="480" as="sourcePoint" />
            <mxPoint x="420" y="430" as="targetPoint" />
          </mxGeometry>
        </mxCell>
        <mxCell id="XygXl6Enzu-woB4NirKY-84" value="" style="endArrow=classic;html=1;rounded=0;exitX=1;exitY=0.3333333333333333;exitDx=0;exitDy=0;exitPerimeter=0;entryX=0;entryY=0.5;entryDx=0;entryDy=0;" parent="1" source="XygXl6Enzu-woB4NirKY-40" target="XygXl6Enzu-woB4NirKY-41" edge="1">
          <mxGeometry width="50" height="50" relative="1" as="geometry">
            <mxPoint x="370" y="480" as="sourcePoint" />
            <mxPoint x="420" y="430" as="targetPoint" />
          </mxGeometry>
        </mxCell>
        <mxCell id="XygXl6Enzu-woB4NirKY-85" value="" style="endArrow=classic;html=1;rounded=0;exitX=1;exitY=0.3333333333333333;exitDx=0;exitDy=0;exitPerimeter=0;entryX=0;entryY=0.5;entryDx=0;entryDy=0;" parent="1" source="XygXl6Enzu-woB4NirKY-40" target="XygXl6Enzu-woB4NirKY-43" edge="1">
          <mxGeometry width="50" height="50" relative="1" as="geometry">
            <mxPoint x="70" y="230" as="sourcePoint" />
            <mxPoint x="420" y="430" as="targetPoint" />
          </mxGeometry>
        </mxCell>
        <mxCell id="XygXl6Enzu-woB4NirKY-86" value="" style="endArrow=classic;html=1;rounded=0;exitX=1;exitY=0.3333333333333333;exitDx=0;exitDy=0;exitPerimeter=0;entryX=0;entryY=0.5;entryDx=0;entryDy=0;" parent="1" source="XygXl6Enzu-woB4NirKY-40" target="XygXl6Enzu-woB4NirKY-44" edge="1">
          <mxGeometry width="50" height="50" relative="1" as="geometry">
            <mxPoint x="370" y="480" as="sourcePoint" />
            <mxPoint x="420" y="430" as="targetPoint" />
          </mxGeometry>
        </mxCell>
        <mxCell id="XygXl6Enzu-woB4NirKY-89" value="" style="endArrow=classic;html=1;rounded=0;entryX=1;entryY=0.5;entryDx=0;entryDy=0;exitX=0;exitY=0.3333333333333333;exitDx=0;exitDy=0;exitPerimeter=0;" parent="1" target="XygXl6Enzu-woB4NirKY-48" edge="1">
          <mxGeometry width="50" height="50" relative="1" as="geometry">
            <mxPoint x="759" y="180" as="sourcePoint" />
            <mxPoint x="420" y="360" as="targetPoint" />
          </mxGeometry>
        </mxCell>
        <mxCell id="XygXl6Enzu-woB4NirKY-92" value="" style="endArrow=classic;html=1;rounded=0;exitX=0;exitY=0.3333333333333333;exitDx=0;exitDy=0;exitPerimeter=0;entryX=1;entryY=0.5;entryDx=0;entryDy=0;" parent="1" target="XygXl6Enzu-woB4NirKY-82" edge="1">
          <mxGeometry width="50" height="50" relative="1" as="geometry">
            <mxPoint x="759" y="180" as="sourcePoint" />
            <mxPoint x="410" y="350" as="targetPoint" />
          </mxGeometry>
        </mxCell>
        <mxCell id="XygXl6Enzu-woB4NirKY-94" value="" style="endArrow=classic;html=1;rounded=0;entryX=1;entryY=0.5;entryDx=0;entryDy=0;exitX=0;exitY=0.3333333333333333;exitDx=0;exitDy=0;exitPerimeter=0;" parent="1" edge="1">
          <mxGeometry width="50" height="50" relative="1" as="geometry">
            <mxPoint x="759" y="180" as="sourcePoint" />
            <mxPoint x="600" y="180" as="targetPoint" />
          </mxGeometry>
        </mxCell>
        <mxCell id="XygXl6Enzu-woB4NirKY-127" value="" style="endArrow=classic;html=1;rounded=0;exitX=0;exitY=0.3333333333333333;exitDx=0;exitDy=0;exitPerimeter=0;entryX=1;entryY=0.5;entryDx=0;entryDy=0;" parent="1" target="XygXl6Enzu-woB4NirKY-96" edge="1">
          <mxGeometry width="50" height="50" relative="1" as="geometry">
            <mxPoint x="759" y="660" as="sourcePoint" />
            <mxPoint x="380" y="710" as="targetPoint" />
          </mxGeometry>
        </mxCell>
        <mxCell id="XygXl6Enzu-woB4NirKY-128" value="" style="endArrow=classic;html=1;rounded=0;exitX=0;exitY=0.3333333333333333;exitDx=0;exitDy=0;exitPerimeter=0;entryX=1;entryY=0.5;entryDx=0;entryDy=0;" parent="1" target="XygXl6Enzu-woB4NirKY-97" edge="1">
          <mxGeometry width="50" height="50" relative="1" as="geometry">
            <mxPoint x="759" y="660" as="sourcePoint" />
            <mxPoint x="380" y="710" as="targetPoint" />
          </mxGeometry>
        </mxCell>
        <mxCell id="XygXl6Enzu-woB4NirKY-129" value="" style="endArrow=classic;html=1;rounded=0;exitX=0;exitY=0.3333333333333333;exitDx=0;exitDy=0;exitPerimeter=0;entryX=1;entryY=0.5;entryDx=0;entryDy=0;" parent="1" target="XygXl6Enzu-woB4NirKY-98" edge="1">
          <mxGeometry width="50" height="50" relative="1" as="geometry">
            <mxPoint x="759" y="660" as="sourcePoint" />
            <mxPoint x="380" y="710" as="targetPoint" />
          </mxGeometry>
        </mxCell>
        <mxCell id="XygXl6Enzu-woB4NirKY-130" value="" style="endArrow=classic;html=1;rounded=0;exitX=0;exitY=0.3333333333333333;exitDx=0;exitDy=0;exitPerimeter=0;entryX=1;entryY=0.5;entryDx=0;entryDy=0;" parent="1" target="XygXl6Enzu-woB4NirKY-99" edge="1">
          <mxGeometry width="50" height="50" relative="1" as="geometry">
            <mxPoint x="759" y="660" as="sourcePoint" />
            <mxPoint x="380" y="710" as="targetPoint" />
          </mxGeometry>
        </mxCell>
        <mxCell id="XygXl6Enzu-woB4NirKY-131" value="" style="endArrow=classic;html=1;rounded=0;exitX=0;exitY=0.3333333333333333;exitDx=0;exitDy=0;exitPerimeter=0;entryX=1;entryY=0.5;entryDx=0;entryDy=0;" parent="1" edge="1">
          <mxGeometry width="50" height="50" relative="1" as="geometry">
            <mxPoint x="759" y="660" as="sourcePoint" />
            <mxPoint x="630" y="890" as="targetPoint" />
          </mxGeometry>
        </mxCell>
      </root>
    </mxGraphModel>
  </diagram>
</mxfile>
